<svg width="26" height="26" viewBox="0 0 26 26" fill="none" xmlns="http://www.w3.org/2000/svg">
<path d="M21.6667 16.0696C23.0839 14.4427 23.8334 13 23.8334 13C23.8334 13 19.8939 5.41667 13 5.41667C12.6304 5.41667 12.2692 5.43848 11.9167 5.47974C11.546 5.52314 11.1848 5.58807 10.8334 5.67181" stroke="#343434" stroke-width="1.5" stroke-linecap="round" stroke-linejoin="round"/>
<path d="M13 9.75C13.3798 9.75 13.7445 9.81516 14.0833 9.93494C15.0068 10.2613 15.7387 10.9932 16.0651 11.9167C16.1848 12.2555 16.25 12.6202 16.25 13" stroke="#343434" stroke-width="1.5" stroke-linecap="round" stroke-linejoin="round"/>
<path d="M3.25 3.25L22.75 22.75" stroke="#343434" stroke-width="1.5" stroke-linecap="round" stroke-linejoin="round"/>
<path d="M13 16.25C12.6202 16.25 12.2555 16.1848 11.9167 16.0651C10.9932 15.7387 10.2613 15.0068 9.93492 14.0833C9.87334 13.9091 9.8262 13.7281 9.79492 13.5417" stroke="#343434" stroke-width="1.5" stroke-linecap="round" stroke-linejoin="round"/>
<path d="M4.49261 9.75C4.15869 10.1232 3.85922 10.4893 3.59521 10.8333C2.65729 12.0555 2.16669 13 2.16669 13C2.16669 13 6.10608 20.5833 13 20.5833C13.3697 20.5833 13.7308 20.5616 14.0834 20.5203" stroke="#343434" stroke-width="1.5" stroke-linecap="round" stroke-linejoin="round"/>
</svg>
