<svg width="39" height="39" viewBox="0 0 39 39" fill="none" xmlns="http://www.w3.org/2000/svg">
<path d="M17.875 4.875H21.125C22.0225 4.875 22.75 5.60254 22.75 6.5V7.42428C22.75 8.11946 23.2165 8.72341 23.8586 8.98995C24.5009 9.25662 25.2488 9.15499 25.7405 8.66325L26.3942 8.00948C27.0288 7.37487 28.0577 7.37487 28.6923 8.00948L30.9904 10.3076C31.6251 10.9422 31.6249 11.9711 30.9904 12.6057L30.3368 13.2594C29.8449 13.7511 29.7433 14.499 30.01 15.1413C30.2765 15.7834 30.8805 16.25 31.5759 16.25H32.5C33.3975 16.25 34.125 16.9775 34.125 17.875V21.125C34.125 22.0225 33.3975 22.75 32.5 22.75H31.5757C30.8805 22.75 30.2767 23.2165 30.01 23.8586C29.7433 24.5009 29.8449 25.2488 30.3368 25.7405L30.9904 26.3942C31.6251 27.0288 31.6251 28.0577 30.9904 28.6923L28.6923 30.9904C28.0577 31.6251 27.0288 31.6251 26.3942 30.9904L25.7405 30.3368C25.2488 29.8449 24.5009 29.7433 23.8586 30.01C23.2165 30.2767 22.75 30.8805 22.75 31.5757V32.5C22.75 33.3975 22.0225 34.125 21.125 34.125H17.875C16.9775 34.125 16.25 33.3975 16.25 32.5V31.5759C16.25 30.8805 15.7834 30.2765 15.1413 30.01C14.499 29.7433 13.7511 29.8449 13.2594 30.3368L12.6056 30.9904C11.971 31.6251 10.9421 31.6251 10.3076 30.9904L8.00945 28.6923C7.37485 28.0577 7.37485 27.0288 8.00945 26.3942L8.66325 25.7405C9.15499 25.2488 9.25662 24.5009 8.98995 23.8586C8.72341 23.2165 8.11946 22.75 7.42428 22.75H6.5C5.60254 22.75 4.875 22.0225 4.875 21.125V17.875C4.875 16.9775 5.60254 16.25 6.5 16.25H7.42425C8.11944 16.25 8.72341 15.7834 8.98997 15.1414C9.25665 14.4991 9.15502 13.7512 8.66325 13.2594L8.00948 12.6057C7.37487 11.9711 7.37487 10.9422 8.00948 10.3076L10.3076 8.00948C10.9422 7.37488 11.9711 7.37488 12.6057 8.00948L13.2594 8.66325C13.7512 9.15502 14.4991 9.25665 15.1414 8.98997C15.7834 8.72341 16.25 8.11944 16.25 7.42423V6.5C16.25 5.60254 16.9775 4.875 17.875 4.875Z" stroke="#343434" stroke-width="2"/>
<path d="M22.75 19.5C22.75 21.295 21.295 22.75 19.5 22.75C17.705 22.75 16.25 21.295 16.25 19.5C16.25 17.705 17.705 16.25 19.5 16.25C21.295 16.25 22.75 17.705 22.75 19.5Z" stroke="#343434" stroke-width="2"/>
</svg>
