<svg width="239" height="257" viewBox="0 0 239 257" fill="none" xmlns="http://www.w3.org/2000/svg">
<rect x="21" width="190" height="190" rx="11" fill="#196A7B"/>
<rect x="9" y="8" width="214" height="214" rx="11" fill="#2E7888"/>
<rect y="18" width="239" height="239" rx="11" fill="#2CA7C1"/>
<path d="M170.667 192.25V179.667C170.667 172.992 168.015 166.591 163.296 161.871C158.576 157.151 152.175 154.5 145.5 154.5H95.1667C88.4921 154.5 82.0908 157.151 77.3711 161.871C72.6515 166.591 70 172.992 70 179.667V192.25M145.5 104.167C145.5 118.066 134.233 129.333 120.333 129.333C106.434 129.333 95.1667 118.066 95.1667 104.167C95.1667 90.2675 106.434 79 120.333 79C134.233 79 145.5 90.2675 145.5 104.167Z" stroke="white" stroke-width="7" stroke-linecap="round" stroke-linejoin="round"/>
</svg>
